<svg width="144" height="144" viewBox="0 0 144 144" fill="none" xmlns="http://www.w3.org/2000/svg">
<path d="M0 46.08C0 20.6307 20.6307 0 46.08 0H144V97.92C144 123.369 123.369 144 97.92 144H0V46.08Z" fill="#00ADA3"/>
<path d="M114.432 28.7998C100.64 28.8614 90.3866 30.8388 82.9671 34.2564C77.4305 36.8052 75.264 38.7338 75.264 45.2672V113.76C83.7443 105.795 91.2699 103.565 120.96 103.565V28.7998H114.432ZM29.568 28.7998C43.3605 28.8614 53.6135 30.8388 61.033 34.2564C66.5696 36.8052 68.736 38.7338 68.736 45.2672V113.76C60.2558 105.795 52.7302 103.565 23.04 103.565V28.7998H29.568Z" fill="white"/>
</svg>
